<svg viewBox="0 0 1034 908.048" xmlns="http://www.w3.org/2000/svg">
<g>
<path d="M0,0 l0,898.048 l146.28572,0 l0,-898.048 z" fill="white" stroke="black" stroke-width="3"/>
<path d="M146.28572,0 l0,898.048 l146.28572,0 l0,-898.048 z" fill="white" stroke="black" stroke-width="3"/>
<path d="M292.57144,0 l0,898.048 l146.28572,0 l0,-898.048 z" fill="#DD0369" stroke="black" stroke-width="3"/>
<path d="M438.85718,0 l0,898.048 l146.28572,0 l0,-898.048 z" fill="white" stroke="black" stroke-width="3"/>
<path d="M585.1429,0 l0,898.048 l146.28572,0 l0,-898.048 z" fill="white" stroke="black" stroke-width="3"/>
<path d="M731.4286,0 l0,898.048 l146.28572,0 l0,-898.048 z" fill="white" stroke="black" stroke-width="3"/>
<path d="M877.7143,0 l0,898.048 l146.28572,0 l0,-898.048 z" fill="#DD0369" stroke="black" stroke-width="3"/>
</g>
<g>
<path d="M93.24252,0 l0,618.75507 l85.333336,0 l0,-618.75507 z" fill="black" stroke="black" stroke-width="3"/>
<path d="M266.86905,0 l0,618.75507 l85.333336,0 l0,-618.75507 z" fill="#C9035F" stroke="black" stroke-width="3"/>
<path d="M525.3413,0 l0,618.75507 l85.333336,0 l0,-618.75507 z" fill="black" stroke="black" stroke-width="3"/>
<path d="M692.107,0 l0,618.75507 l85.333336,0 l0,-618.75507 z" fill="black" stroke="black" stroke-width="3"/>
<path d="M858.8727,0 l0,618.75507 l85.333336,0 l0,-618.75507 z" fill="black" stroke="black" stroke-width="3"/>
</g>
</svg>