<svg viewBox="0 0 276 296" xmlns="http://www.w3.org/2000/svg">
<g>
<path d="M10,20 l0,112.256 l18.285715,0 l0,-112.256 z" fill="white" stroke="black"/>
<path d="M28.285715,20 l0,112.256 l18.285715,0 l0,-112.256 z" fill="white" stroke="black"/>
<path d="M46.57143,20 l0,112.256 l18.285715,0 l0,-112.256 z" fill="white" stroke="black"/>
<path d="M64.85715,20 l0,112.256 l18.285715,0 l0,-112.256 z" fill="white" stroke="black"/>
<path d="M83.14286,20 l0,112.256 l18.285715,0 l0,-112.256 z" fill="white" stroke="black"/>
<path d="M101.42857,20 l0,112.256 l18.285715,0 l0,-112.256 z" fill="#2ecc71" stroke="black"/>
<path d="M119.71429,20 l0,112.256 l18.285715,0 l0,-112.256 z" fill="white" stroke="black"/>
<path d="M138,20 l0,112.256 l18.285715,0 l0,-112.256 z" fill="white" stroke="black"/>
<path d="M156.28572,20 l0,112.256 l18.285715,0 l0,-112.256 z" fill="white" stroke="black"/>
<path d="M174.57144,20 l0,112.256 l18.285715,0 l0,-112.256 z" fill="white" stroke="black"/>
<path d="M192.85716,20 l0,112.256 l18.285715,0 l0,-112.256 z" fill="white" stroke="black"/>
<path d="M211.14288,20 l0,112.256 l18.285715,0 l0,-112.256 z" fill="white" stroke="black"/>
<path d="M229.4286,20 l0,112.256 l18.285715,0 l0,-112.256 z" fill="white" stroke="black"/>
<path d="M247.71432,20 l0,112.256 l18.285715,0 l0,-112.256 z" fill="white" stroke="black"/>
</g>
<g>
<path d="M21.655315,20 l0,77.34438 l10.666667,0 l0,-77.34438 z" fill="#e74c3c" stroke="black"/>
<path d="M43.35863,20 l0,77.34438 l10.666667,0 l0,-77.34438 z" fill="black" stroke="black"/>
<path d="M75.66766,20 l0,77.34438 l10.666667,0 l0,-77.34438 z" fill="black" stroke="black"/>
<path d="M96.513374,20 l0,77.34438 l10.666667,0 l0,-77.34438 z" fill="black" stroke="black"/>
<path d="M117.359085,20 l0,77.34438 l10.666667,0 l0,-77.34438 z" fill="black" stroke="black"/>
<path d="M149.65532,20 l0,77.34438 l10.666667,0 l0,-77.34438 z" fill="black" stroke="black"/>
<path d="M171.35864,20 l0,77.34438 l10.666667,0 l0,-77.34438 z" fill="black" stroke="black"/>
<path d="M203.66768,20 l0,77.34438 l10.666667,0 l0,-77.34438 z" fill="black" stroke="black"/>
<path d="M224.5134,20 l0,77.34438 l10.666667,0 l0,-77.34438 z" fill="black" stroke="black"/>
<path d="M245.35913,20 l0,77.34438 l10.666667,0 l0,-77.34438 z" fill="black" stroke="black"/>
</g>
</svg>